<svg xmlns="http://www.w3.org/2000/svg" viewBox="0 0 1200 300">
  <path fill="#ffffff" d="M88.5 0C39.6 0 0 39.6 0 88.5S39.6 177 88.5 177 177 137.4 177 88.5 137.4 0 88.5 0zm45.7 88.5c0 25.2-20.5 45.7-45.7 45.7s-45.7-20.5-45.7-45.7 20.5-45.7 45.7-45.7 45.7 20.5 45.7 45.7z"/>
  <path fill="#ffffff" d="M200 50h800v200H200z"/>
  <path fill="#276749" d="M88.5 42.8c-25.2 0-45.7 20.5-45.7 45.7s20.5 45.7 45.7 45.7 45.7-20.5 45.7-45.7-20.5-45.7-45.7-45.7zm0 68.6c-12.6 0-22.9-10.3-22.9-22.9s10.3-22.9 22.9-22.9 22.9 10.3 22.9 22.9-10.3 22.9-22.9 22.9z"/>
</svg>